<svg width="208" height="210" viewBox="0 0 208 210" fill="none" xmlns="http://www.w3.org/2000/svg">
<path fill-rule="evenodd" clip-rule="evenodd" d="M76.1598 3.68766C44.6881 13.6802 21.7361 33.592 8.19175 62.6515C1.21887 77.6052 -0.0116367 84.0067 8.24521e-05 105.192C0.0118016 126.333 1.27161 132.858 8.27379 148.055C46.3961 230.8 161.138 230.604 199.791 147.732C206.761 132.787 208 126.365 208 105.192C208 84.0185 206.761 77.5964 199.791 62.6515C190.919 43.6286 176.115 26.413 159.374 15.6459C136.458 0.906402 100.975 -4.19257 76.1598 3.68766ZM112.129 90.3086L112.94 135.566L124.255 124.502C136.212 112.811 145.613 111.391 147.459 120.999C148.687 127.383 111.279 166.802 103.993 166.802C96.7064 166.802 59.2989 127.383 60.5265 120.999C62.3781 111.37 71.7798 112.817 83.8094 124.578L95.2034 135.721V91.6083C95.2034 67.3456 96.138 46.5566 97.2806 45.4124C98.4232 44.2711 102.047 43.7196 105.337 44.1919C111.021 45.0075 111.358 47.29 112.129 90.3086Z" fill="#190324"/>
</svg>
