<svg width="61" height="59" viewBox="0 0 61 59" fill="none" xmlns="http://www.w3.org/2000/svg">
<path fill-rule="evenodd" clip-rule="evenodd" d="M7.14091 7.00324C3.21379 10.8551 0 14.3654 0 14.8044C0 15.2426 3.19832 18.734 7.10686 22.5616L14.213 29.5218L15.7897 27.982L17.3664 26.4422L11.598 20.771L5.82955 15.0998L10.6417 10.4002C15.1661 5.98173 15.532 5.77773 16.7653 6.98284C17.9993 8.1872 17.9915 8.3572 16.6307 9.82524C15.2141 11.3545 15.2187 11.4202 16.8488 13.0122C18.465 14.5905 18.5586 14.5981 20.0734 13.2592C21.3717 12.1116 21.8366 12.0443 22.8416 12.8596C23.9139 13.7284 23.7824 14.1085 21.6765 16.2301L19.3037 18.6214L20.9036 20.0351C22.4857 21.4328 22.5499 21.4041 26.532 17.5047L30.5597 13.56L23.5155 6.78036C19.641 3.05093 15.9785 0 15.3765 0C14.7746 0 11.0688 3.15142 7.14091 7.00324ZM46.3904 4.48498L43.7119 6.70329L48.4653 11.3862L53.2187 16.0692L55.5993 13.5124C58.7318 10.1471 58.6289 8.4388 55.091 5.06449C51.5484 1.6864 49.902 1.57684 46.3904 4.48498ZM23.2161 26.8162C7.56565 42.1139 7.39621 42.3141 9.10369 43.4815C10.0537 44.1312 10.8313 45.1452 10.8313 45.7345C10.8313 46.3239 11.8587 47.3242 13.1136 47.9581C14.3692 48.592 15.7255 49.6853 16.1278 50.3872C16.7382 51.4526 19.4878 49.0605 32.811 35.8753L48.7632 20.088L44.3278 15.711C41.8884 13.3031 39.7036 11.3333 39.4738 11.3333C39.244 11.3333 31.9275 18.3011 23.2161 26.8162ZM42.3286 33.0812C38.2739 37.1023 38.0944 37.5632 40.037 38.967C41.2029 39.8102 41.7228 39.6334 43.7831 37.6962C45.9068 35.6985 46.2875 35.5784 47.1779 36.6263C48.0127 37.6078 47.9439 38.0619 46.7687 39.3297C45.3977 40.8091 45.4055 40.9005 47.0217 42.4788C48.6518 44.0708 48.7191 44.0753 50.285 42.6919C51.7882 41.3629 51.9623 41.3553 53.1955 42.5604C54.4295 43.7648 54.2206 44.1222 49.6962 48.5407L44.884 53.2402L39.0769 47.6068L33.2698 41.9734L31.6389 43.5661L30.008 45.158L37.0878 52.0457C40.9817 55.834 44.5939 58.9333 45.1154 58.9333C46.4128 58.9333 60.3457 45.1807 60.3457 43.8993C60.3457 42.9088 47.3984 29.4667 46.4437 29.4667C46.1861 29.4667 44.334 31.0934 42.3286 33.0812ZM3.16351 52.9622C2.64128 54.6652 2.37824 56.2186 2.57862 56.4151C3.07067 56.8948 9.28395 55.0483 9.28395 54.4219C9.28395 53.8401 5.13557 49.8667 4.52902 49.8667C4.30002 49.8667 3.68573 51.2599 3.16351 52.9622Z" fill="black"/>
</svg>
