<svg width="70" height="44" viewBox="0 0 70 44" fill="none" xmlns="http://www.w3.org/2000/svg">
<path fill-rule="evenodd" clip-rule="evenodd" d="M29.5665 1.0201C26.0958 2.52966 24.725 5.68833 24.725 12.1797C24.725 17.0158 24.9926 18.0271 27.0741 21.0523C30.7119 26.3393 30.1323 27.9539 23.2377 31.7435C17.0545 35.1429 15.0443 37.2459 14.2884 41.106L13.8 43.5977H34.6917H55.5833L55.095 41.106C54.339 37.2459 52.3288 35.1429 46.1457 31.7435C39.2411 27.9477 38.6668 26.3316 42.307 20.9381C44.3762 17.8714 44.6583 16.8096 44.6583 12.0754C44.6583 5.56183 44.1293 4.46549 39.7478 1.89716C35.9513 -0.326939 33.2074 -0.563838 29.5665 1.0201ZM12.6707 6.73176C10.4389 8.34866 9.4714 9.67193 9.16933 11.5234C8.44867 15.9348 9.11797 20.8783 10.8131 23.6644C14.2278 29.2787 14.1297 29.5838 7.82997 32.941C2.73623 35.6566 1.2581 37.3087 0.490667 41.1459L0 43.5977H4.69583C8.9056 43.5977 9.39167 43.4367 9.39167 42.0398C9.39167 37.8032 13.7042 31.5495 18.2083 29.2564C19.4733 28.6124 21.2827 27.3766 22.2295 26.511L23.9514 24.937L22.0378 21.6726C20.3788 18.8413 20.125 17.485 20.125 11.4529V4.49769H17.94C16.7386 4.49769 14.3673 5.50279 12.6707 6.73176ZM49.2583 11.4529C49.2583 17.485 49.0046 18.8413 47.3455 21.6726L45.4319 24.937L47.1538 26.511C48.1007 27.3766 49.91 28.6124 51.175 29.2564C55.6792 31.5495 59.9917 37.8032 59.9917 42.0398C59.9917 43.4367 60.4777 43.5977 64.6875 43.5977H69.3833L68.9241 41.3008C68.1751 37.5579 66.3404 35.4925 61.4453 32.8835C55.2629 29.5884 55.1624 29.2672 58.5703 23.6644C60.2654 20.8783 60.9347 15.9348 60.214 11.5234C59.7095 8.43453 54.7952 4.49769 51.4433 4.49769H49.2583V11.4529Z" fill="#190324"/>
</svg>
